<svg xmlns="http://www.w3.org/2000/svg" version="1.1" xmlns:xlink="http://www.w3.org/1999/xlink" xmlns:svgjs="http://svgjs.dev/svgjs" width="80" height="80" viewBox="0 0 1500 1518"><g transform="matrix(1,0,0,1,1.325901639344238,0.6145748987853494)"><svg viewBox="0 0 244 247" data-background-color="#ffffff" preserveAspectRatio="xMidYMid meet" height="1518" width="1500" xmlns="http://www.w3.org/2000/svg" xmlns:xlink="http://www.w3.org/1999/xlink"><g id="tight-bounds" transform="matrix(1,0,0,1,-0.21567999999999188,-0.09999999999999432)"><svg viewBox="0 0 244.43135999999998 247.2" height="247.2" width="244.43135999999998"><g><svg></svg></g><g><svg viewBox="0 0 244.43135999999998 247.2" height="247.2" width="244.43135999999998"><g transform="matrix(1,0,0,1,0,55.140123)"><svg viewBox="0 0 244.43135999999998 136.91975399999998" height="136.91975399999998" width="244.43135999999998"><g><svg viewBox="0 0 244.43135999999998 136.91975399999998" height="136.91975399999998" width="244.43135999999998"><g><svg viewBox="0 0 244.43135999999998 136.91975399999998" height="136.91975399999998" width="244.43135999999998"><g id="textblocktransform"><svg viewBox="0 0 244.43135999999998 136.91975399999998" height="136.91975399999998" width="244.43135999999998" id="textblock"><g><svg viewBox="0 0 244.43135999999998 136.91975399999998" height="136.91975399999998" width="244.43135999999998"><g transform="matrix(1,0,0,1,0,0)"><svg width="244.43135999999998" viewBox="3.25 -35.01 62.489999999999995 35.01" height="136.91975399999998" data-palette-color="#000000"><path d="M10.25-13.99L10.25 0 3.25 0 3.25-35.01 10.25-35.01 10.25-21 24.24-21 24.24-35.01 31.25-35.01 31.25 0 24.24 0 24.24-13.99 10.25-13.99ZM65.74-35.01L65.74 0 58.25 0 44.75-23.05 44.75 0 37.74 0 37.74-35.01 45.24-35.01 58.74-11.94 58.74-35.01 65.74-35.01Z" opacity="1" transform="matrix(1,0,0,1,0,0)" fill="#000000" class="wordmark-text-0" data-fill-palette-color="primary" id="text-0"></path></svg></g></svg></g></svg></g></svg></g><g></g></svg></g></svg></g><path d="M0 49.14L0 1 244.431 1 244.431 49.14 232.084 49.14 232.084 13.348 12.348 13.348 12.348 49.14 0 49.14M0 198.06L0 246.2 244.431 246.2 244.431 198.06 232.084 198.06 232.084 233.852 12.348 233.852 12.348 198.06 0 198.06" fill="#5e3bee" stroke="transparent" data-fill-palette-color="tertiary"></path></svg></g><defs></defs></svg><rect width="244.43135999999998" height="247.2" fill="none" stroke="none" visibility="hidden"></rect></g></svg></g></svg>